<svg xmlns="http://www.w3.org/2000/svg" viewBox="0 0 33.51 33.97"><defs><style>.cls-1{fill:#535770;}</style></defs><title>Asset 4-dark</title><g id="Layer_2" data-name="Layer 2"><g id="Layer_1-2" data-name="Layer 1"><path class="cls-1" d="M18.38,34c-2.13,0-4.25,0-6.37,0a2.25,2.25,0,0,1-2.17-1.1c-3.2-5-6.46-10-9.65-15a1.53,1.53,0,0,1,0-1.47C3.4,11.34,6.69,6.32,9.93,1.28,11.07-.49,12.54.09,18.62.09h4.31c2.28,0,3.1.46,3.84,1.58,1,1.46,3.75,5.51,6.24,9.23.91,1.36.58,2.21-1,2.22-3.92,0-7.84,0-11.75,0a2.09,2.09,0,0,0-1.78.9c-1.93,2.12-2,4.09,0,6.22a2.22,2.22,0,0,0,1.9,1c3.82-.05,7.65-.05,11.47,0,.53,0,1.23,0,1.53.59a1.75,1.75,0,0,1-.19,1.37c-2,3.22-4.17,6.4-6.19,9.64A2.42,2.42,0,0,1,24.6,34C22.53,33.92,20.45,34,18.38,34ZM3.86,14.74a.66.66,0,0,0,.55,1c3.16,0,6.37.05,9.4,0a2.46,2.46,0,0,0,1.27-.8c1-1.44,1.64-2.65,2.58-4.11l4.69-7.29a.66.66,0,0,0-.56-1c-3,0-5.85,0-8.67,0a1.75,1.75,0,0,0-1.75.94Zm17.9,16.88a.67.67,0,0,0,.56-1c-2.63-4-5.13-7.72-7.68-11.59a1.57,1.57,0,0,0-1.09-.56c-3,0-6.33,0-9.45,0a.51.51,0,0,0-.42.79l7.94,11.82a1.47,1.47,0,0,0,1.17.57Zm4.13-1.8,3.53-5.47a.67.67,0,0,0-.56-1H21.79a.66.66,0,0,0-.55,1c1.17,1.83,2.32,3.61,3.53,5.49A.67.67,0,0,0,25.89,29.82Zm0-25.56a.66.66,0,0,0-1.11,0L21.28,9.69a.67.67,0,0,0,.56,1h7a.67.67,0,0,0,.56-1Z"/></g></g></svg>